<svg width="584" height="311" viewBox="0 0 584 311" fill="none" xmlns="http://www.w3.org/2000/svg">
<path d="M276.979 65.4385C281.194 65.1369 286.228 65.2419 290.537 65.2471C300.768 65.2562 311 65.5462 321.214 66.1172C328.66 66.5086 335.07 66.735 342.45 68.1562C347.115 69.055 353.47 76.5176 355.304 76.5762C362.713 76.8076 370.837 76.9571 378.249 76.9756C390.262 77.1004 402.273 77.3194 414.281 77.6338C430.207 78.0429 446.124 78.8379 462.013 80.0166C476.904 81.1272 484.46 79.8469 495.139 91.1768C500.959 92.6451 506.403 92.4889 511.411 96.3301C519.914 102.856 518.231 111.274 517.592 120.529L516.175 140.988L514.507 166.438C514.211 170.801 514.208 176.365 513.264 180.543C509.908 195.378 496.326 196.456 484.281 197.81C481.389 208.792 482.955 221.586 474.318 230.513C466.408 238.689 456.176 237.341 445.719 237.323L423.018 237.288C394.129 237.264 364.883 237.064 336.014 237.391C325.709 249.259 319.625 247.14 305.045 247.08L274.774 247.101C261.085 247.119 252.323 249.449 243.085 237.479C239.275 237.173 234.378 237.286 230.491 237.288L211.046 237.293L149.202 237.292L131.324 237.325C120.996 237.345 112.223 238.056 104.578 229.795C98.85 223.606 98.0689 217.469 96.8364 209.501L94.9546 197.225C87.8488 196.309 81.1488 196.07 75.6333 191.084C70.7353 186.656 69.2226 181.961 68.8413 175.603C68.5219 170.272 68.1629 164.939 67.8179 159.626L65.1255 118.636C64.6804 111.03 63.7813 104.301 69.2739 98.248C75.1384 91.7858 82.7357 92.8607 89.8335 90.8174C93.1969 89.8493 96.9723 83.6361 103.21 82.3467C111.62 80.6087 120.862 80.2378 129.404 79.6475C148.724 78.3459 168.075 77.5634 187.437 77.3018C199.393 77.0891 212.3 77.2439 224.153 76.6299C225.092 75.5889 226.03 74.5383 227.014 73.54C229.32 71.2024 231.877 69.4787 235.013 68.4414C242.928 65.8246 267.925 65.5089 276.979 65.4385ZM341.235 79.002C334.779 75.5242 279.707 75.0811 269.126 75.9873C263.812 76.2342 243.553 76.7722 239.21 78.1299C237.152 78.7559 235.303 79.9324 233.863 81.5312C232.316 83.2338 231.645 84.8116 230.972 86.9639C219.247 87.6303 206.203 87.2876 194.334 87.5479C172.254 88.0319 150.143 88.435 128.108 90.1807C121.292 90.7206 113.389 90.9203 106.75 92.2832C104.343 92.7778 101.69 94.7614 100.056 96.6113C99.0581 97.7333 98.1691 98.9481 97.4009 100.238C74.9716 103.959 73.5156 101.062 75.9956 125.699C78.1359 125.696 89.199 125.356 90.3286 126.279C91.0255 128.044 90.7246 131.416 90.48 133.353C86.0065 133.595 80.9887 133.5 76.4653 133.499C76.9384 141.206 77.477 148.75 77.8188 156.472C81.65 156.472 88.5766 156.292 92.147 156.688C92.2887 158.891 92.4121 161.616 92.0913 163.814C88.1728 164.166 82.5531 163.977 78.4663 163.984C78.4963 187.568 82.8093 185.182 104.065 187.887C104.889 193.529 105.746 199.167 106.633 204.8C107.318 209.196 107.797 214.096 109.437 218.23C111.078 222.37 115.205 226.144 119.75 226.592C125.347 227.143 131.032 226.994 136.663 226.99L162.143 226.969L249.853 226.97C251.188 232.111 254.553 236.417 260.216 236.615C266.54 236.836 272.877 236.741 279.208 236.736L315.756 236.734C323.162 236.664 326.84 234.363 329.116 226.989L417.817 226.961L443.475 226.979C448.947 226.982 454.628 227.263 460.057 226.561C462.558 226.237 464.927 225.207 466.707 223.393C472.72 217.263 473.017 197.356 475.187 188.478C479.299 187.935 493.914 186.301 497.087 185.031C498.841 184.348 500.372 183.198 501.515 181.706C504.481 177.784 503.517 169.366 504.626 164.059C502.085 164.022 491.315 164.256 489.864 163.492C489.236 161.851 489.513 158.338 489.767 156.541C494.777 156.478 499.79 156.474 504.8 156.53C505.527 153.442 505.587 146.55 505.758 143.163C505.901 140.431 506.247 136.155 506.255 133.516C504.011 133.512 492.753 133.849 491.484 132.958C490.857 131.676 490.657 127.013 491.889 125.972C494.191 125.484 503.729 125.692 506.737 125.702C509.48 101.141 508.895 105.521 488.543 100.576C483.995 91.1068 475.852 91.5415 466.864 90.7998C464.4 90.5966 461.918 90.4602 459.455 90.2646C436.146 88.6284 412.795 87.7081 389.429 87.5049C379.808 87.4188 370.156 87.2781 360.535 87.1689C357.344 87.1325 349.935 87.0432 346.963 86.6064C346.017 83.4056 344.24 80.6219 341.235 79.002Z" fill="black"/>
<path d="M439.894 107.313C449.581 107.024 459.099 108.938 466.724 115.265C472.969 120.51 476.881 128.012 477.611 136.131C479.533 157.473 466.036 171.02 445.289 172.724C434.635 172.846 425.744 171.936 417.244 164.776C404.064 153.683 402.886 131.513 414.089 118.643C420.95 110.762 429.802 108.04 439.894 107.313ZM459.239 137.648C457.693 129.302 448.312 124.568 440.424 125.537C435.634 126.086 430.937 127.646 427.797 131.547C425.519 134.418 424.486 138.082 424.931 141.719C425.356 145.378 427.267 148.701 430.218 150.91C434.752 154.347 439.451 154.625 444.827 154.483C449.72 153.591 453.955 152.193 456.995 147.856C459.079 144.891 459.886 141.214 459.239 137.648Z" fill="black"/>
<path d="M142.531 107.227C160.578 107.272 172.399 120.088 175.66 137.174C176.915 143.747 176.781 149.147 176.775 155.768L176.723 171.955C170.423 172.092 163.641 171.993 157.335 171.955L157.188 164.222C154.218 163.821 148.999 163.973 145.857 163.98C141.124 163.963 132.148 163.703 127.819 164.223C127.687 166.593 127.736 169.533 127.71 171.947C121.563 172.115 114.537 172.02 108.388 171.937C108.144 167.31 108.322 162.25 108.265 157.594C108.094 143.736 108.62 129.825 117.932 118.589C123.697 111.631 130.993 108.14 139.938 107.308C140.801 107.253 141.666 107.227 142.531 107.227ZM142.443 125.82C129.473 127.602 127.488 138.402 127.791 149.304C132.472 149.664 138.476 149.488 143.291 149.485C147.723 149.486 152.821 149.597 157.196 149.375C157.407 142.008 157.499 136.076 152.072 130.106C149.457 127.229 146.249 126.158 142.443 125.82Z" fill="black"/>
<path d="M275.94 107.23C284.192 107.246 292.097 110.543 297.914 116.394C308.921 127.444 309.52 141.506 309.5 155.938L309.46 171.96C302.987 172 296.511 172 290.038 171.96C290.027 169.365 289.978 166.77 289.896 164.177C286.542 163.822 281.63 163.973 278.17 163.98C272.368 163.971 266.368 163.884 260.586 164.094C260.482 166.614 260.511 169.414 260.483 171.958C254.256 172.094 247.295 172.037 241.069 171.937C241.01 170.646 240.994 169.382 240.997 168.079C241.043 149.113 238.771 127.19 255.429 113.904C260.68 109.716 266.146 107.919 272.685 107.299C273.769 107.258 274.855 107.235 275.94 107.23ZM275.278 125.822C262.088 127.25 260.192 138.58 260.607 149.338C265.534 149.596 270.92 149.493 275.889 149.486C280.327 149.491 285.621 149.616 289.984 149.346C290.101 138.908 288.541 126.848 275.278 125.822Z" fill="black"/>
<path d="M321.454 108.306C339.213 107.77 352.305 115.806 359.679 132.064C366.177 115.983 381.239 107.57 398.209 108.399C398.654 122.005 398.106 135.893 398.309 149.527C398.42 156.919 398.372 164.543 398.238 171.935C392.272 172.171 384.761 171.999 378.764 171.963C378.271 169.251 378.473 159.883 378.482 156.641L378.453 135.92C369.679 140.693 367.543 149.51 366.063 158.715C361.932 158.816 357.543 158.745 353.391 158.745C351.703 149.699 349.761 140.422 340.759 135.888L340.713 171.95C334.249 172.006 327.781 172.014 321.317 171.972C321.02 154.946 321.468 137.802 321.263 120.762C321.214 116.769 321.117 112.256 321.454 108.306Z" fill="black"/>
<path d="M188.097 109.029C193.356 108.973 202.322 108.667 207.213 109.186C207.7 124.163 207.276 141.039 207.315 156.216C216.181 156.355 225.123 156.184 234.032 156.318C233.181 160.779 231.654 166.009 230.459 170.466C230.341 171.222 230.348 171.262 229.927 171.882C228.572 172.143 219.269 172.007 217.241 172.005L186.775 171.971C186.632 165.457 186.444 110.319 187.114 109.247L188.097 109.029Z" fill="black"/>
<path d="M258.506 190.099C263.731 189.929 268.099 194.033 268.255 199.256C268.411 204.478 264.296 208.835 259.071 208.978C253.865 209.12 249.527 205.024 249.371 199.82C249.215 194.617 253.301 190.268 258.506 190.099ZM261.583 196.074C260.565 195.266 259.242 194.946 257.966 195.201C255.588 195.677 254.037 197.979 254.49 200.36C254.943 202.743 257.231 204.316 259.618 203.886C261.774 203.497 263.321 201.588 263.253 199.398C263.213 198.099 262.602 196.883 261.583 196.074Z" fill="black"/>
<path d="M129.014 190.714C135.422 190.618 145.498 189.572 145.75 198.874C145.839 202.162 145.369 203.61 143.122 206.032C138.794 209.206 134.227 208.543 129.017 208.464C128.976 202.547 128.975 196.631 129.014 190.714ZM134.033 195.264C134.026 198.076 133.984 200.968 134.052 203.772C136.156 203.753 137.48 203.861 139.357 202.812C142.833 197.691 139.235 195.312 134.154 195.264H134.033Z" fill="black"/>
<path d="M424.107 190.689L429.477 190.746L429.482 208.475L424.526 208.461L424.515 204.031L424.535 198.765C423.015 200.976 421.552 203.228 420.152 205.517C418.635 203.312 417.161 201.076 415.735 198.811L415.732 208.468L410.736 208.459C410.705 202.546 410.713 196.633 410.762 190.721L416.143 190.725L420.172 197.212C421.527 195.065 422.838 192.89 424.107 190.689Z" fill="black"/>
<path d="M149.51 190.714C153.507 190.675 161.115 189.707 163.994 192.844C165.645 194.643 165.385 196.756 165.225 199.024C164.25 200.61 163.498 201.301 162.021 202.386C162.863 203.732 166.076 207.097 165.13 208.417L163.751 208.485L160.183 208.487C159.227 207.035 157.194 203.346 155.531 203.156C154.337 204.135 154.722 207.003 154.757 208.478L149.48 208.463L149.51 190.714ZM154.762 195.001L154.747 198.981C156.441 198.989 158.399 199.139 159.954 198.505C160.144 197.606 160.334 197.125 159.952 196.272C159.256 195.397 158.787 195.221 157.692 195.104C156.719 195.005 155.74 194.97 154.762 195.001Z" fill="black"/>
<path d="M370.509 190.715L375.229 190.719C377.581 193.699 379.999 196.697 382.229 199.766C382.204 196.787 382.284 193.704 382.323 190.717L387.245 190.736L387.262 208.472L382.686 208.471C380.692 205.645 377.735 202.103 375.54 199.325L375.517 208.473L370.478 208.461L370.509 190.715Z" fill="black"/>
<path d="M229.281 190.715L234.469 190.739L234.498 197.245L240.484 197.249L240.517 190.724L245.497 190.735L245.511 208.476L240.489 208.457L240.472 201.788L234.504 201.789L234.484 208.469L229.27 208.466L229.281 190.715Z" fill="black"/>
<path d="M392.05 190.701L406.299 190.746L406.265 194.994C404.431 195.025 398.215 194.609 397.08 195.421C396.932 196.158 396.906 196.195 397.183 196.865C398.563 198.002 403.453 197.526 405.515 197.511L405.498 201.507L397.744 201.534C397.22 201.624 397.476 201.526 397.02 201.971C396.735 202.928 396.672 202.623 396.989 203.385C398.161 204.356 404.645 203.996 406.487 203.995L406.499 208.469L392.044 208.462C392.01 202.542 392.013 196.621 392.05 190.701Z" fill="black"/>
<path d="M311.513 190.715L325.728 190.731L325.674 194.979C323.729 195.034 318.083 194.691 316.64 195.347C316.403 196.272 316.392 195.883 316.729 196.826C318.189 198.045 322.574 197.526 324.776 197.512L324.764 201.503L317.091 201.539L316.589 201.828C316.438 202.579 316.375 202.67 316.6 203.372C317.915 204.364 323.758 203.991 325.697 203.984L325.708 208.464C321 208.516 316.207 208.466 311.49 208.463L311.513 190.715Z" fill="black"/>
<path d="M445.435 190.48C447.607 196.239 450.547 202.627 452.905 208.45L447.293 208.464C446.971 207.46 446.615 205.983 445.922 205.266L439.472 205.271L438.502 208.488L432.941 208.474L440.458 190.459L445.435 190.48ZM442.691 197.381C442.281 198.498 441.453 200.035 441.707 200.978C442.426 201.413 443.099 201.285 443.972 201.258L444.37 200.822C444.088 199.949 443.473 197.859 442.691 197.381Z" fill="black"/>
<path d="M180.235 190.476C182.321 196.004 185.482 202.936 187.834 208.478L182.197 208.466C181.835 207.478 181.393 205.996 180.726 205.256L174.376 205.271L173.314 208.471L167.817 208.468C170.135 202.564 173.149 196.357 175.246 190.473L180.235 190.476ZM177.689 197.195C177.224 198.175 176.295 199.761 176.455 200.751C177.101 201.492 177.243 201.265 178.54 201.406L179.141 201.033C179.179 200.027 178.245 198.017 177.689 197.195Z" fill="black"/>
<path d="M272.043 190.723L276.97 190.723C276.944 193.705 276.452 200.913 278.047 203.021C278.499 203.62 279.186 203.996 279.934 204.054C284.727 204.469 283.289 194.008 283.274 190.717L288.51 190.734L288.53 195.408C288.573 198.868 289.114 203.734 286.582 206.406C283.794 209.498 276.648 209.606 273.868 206.542C271.103 203.495 271.987 194.8 272.043 190.723Z" fill="black"/>
<path d="M297.144 190.5C301.607 190.141 303.255 190.525 307.033 192.62C306.183 193.849 305.319 195.069 304.441 196.277C303.993 196.051 303.537 195.838 303.075 195.639C301.726 195.061 299.134 194.514 297.757 195.056L297.751 195.49C300.589 198.702 310.563 197.452 306.52 205.951C305.71 207.65 303.104 208.36 301.413 208.722C297.118 208.855 294.86 208.187 291.529 205.652C292.507 204.709 293.528 203.413 294.415 202.353C296.306 203.49 300.124 205.653 301.9 203.584L301.806 202.926C298.963 200.323 289.972 201.801 293.069 193.908C293.899 191.794 295.196 191.359 297.144 190.5Z" fill="black"/>
<path d="M348.652 190.24C352.518 190.445 353.904 191.322 356.448 194.029C355.262 195.025 353.782 196.129 352.544 197.097C351.047 195.626 349.69 194.694 347.497 195.278C346.57 195.526 345.786 196.138 345.321 196.974C344.526 198.383 344.665 200.305 345.096 201.804C346.211 205.675 350.386 203.344 352.738 202.28C353.611 202.372 354.403 203.112 355.156 203.665C356.077 204.274 356.334 204.335 356.077 205.365C354.343 207.107 352.538 208.382 350.055 208.778C347.634 209.169 345.156 208.567 343.182 207.108C341.161 205.631 339.835 203.389 339.518 200.907C338.683 194.496 342.646 190.952 348.652 190.24Z" fill="black"/>
<path d="M191.311 190.713L205.516 190.74L205.468 195.261C203.028 195.291 198.53 194.815 196.531 195.773C195.912 196.522 196.029 196.162 196.085 197.115C197.556 199.325 202.53 196.935 204.501 198.414L204.47 202.247L196.286 202.307L196.24 208.467L191.287 208.463L191.311 190.713Z" fill="black"/>
<path d="M209.554 190.703L224.999 190.732L224.969 195.264L219.756 195.301L219.755 202.606L219.762 208.472L214.739 208.457L214.736 195.283L209.526 195.263L209.554 190.703Z" fill="black"/>
<path d="M360.269 190.719L365.507 190.736L365.524 208.474L360.252 208.464C360.172 202.638 360.26 196.563 360.269 190.719Z" fill="black"/>
</svg>
