<svg width="1498" height="396" viewBox="0 0 1498 396" fill="none" xmlns="http://www.w3.org/2000/svg">
<g clip-path="url(#clip0_3042_101)">
<path d="M658.488 8.37305C679.939 8.9 705.128 10.5393 725.155 18.536C750.331 28.5873 773.065 43.4901 793.04 61.7073C831.31 29.3285 869.908 9.02246 921.511 8.63619C966.203 8.30161 1017.06 27.5681 1049.06 59.0956C1080.99 90.5566 1089.66 131.626 1089.88 175L1089.8 286.765C1089.77 304.449 1091 325.159 1088.61 342.407C1083.81 376.925 1039.06 389.247 1013.54 369.693C991.811 353.042 995.46 320.461 995.453 296.237L995.468 221.072C995.468 185.152 999.557 147.879 971.93 120.001C944.698 92.519 889.291 94.3212 862.586 121.77C849.822 134.893 841.089 153.338 839.143 171.603C838.412 179.63 838.8 189.833 838.807 198.059L838.873 237.527L838.946 299.014C838.96 312.592 839.875 327.632 837.264 340.821C832.034 363.237 818.465 376.488 795.352 377.908C759.533 380.107 743.448 354.364 744.246 322.01C744.472 312.787 744.253 301.624 744.26 292.05L744.341 217.73C744.348 209.116 744.048 198.638 744.37 190.168C746.447 135.542 716.816 97.9561 659.763 100.527C612.849 102.641 587.714 133.756 588.432 180.307C588.564 188.831 588.513 198.38 588.521 206.998L588.604 293.222C588.626 307.332 589.979 326.724 587.532 340.111C580.876 376.526 537.3 390.836 509.71 367.165C499.932 358.776 493.984 342.439 493.954 329.866C493.887 301.857 493.944 273.779 493.946 245.739L493.93 192.736C493.876 165.876 493.054 142.878 499.554 116.271C504.465 95.3225 514.691 75.9953 529.245 60.1569C562.833 24.0869 610.683 10.0493 658.488 8.37305Z" fill="black"/>
<path d="M0 326.019C2.56445 309.572 4.18107 297.359 9.13392 280.968C33.1332 200.524 86.2915 133.453 152.542 83.3591C218.361 32.8771 299.454 8.59601 381.822 7.29627C406.693 6.90383 446.371 3.81574 461.791 26.9269C475.783 47.8961 471.692 85.8786 471.662 110.59L471.643 213.084L471.722 298.08C471.749 322.081 476.808 355.44 454.621 370.51C443.618 377.985 429.593 379.138 416.775 376.884C405.452 374.887 395.4 368.433 388.866 358.965C378.037 343.422 378.897 328.025 378.907 310.02L378.922 274.121L378.958 147.683C378.959 133.746 379.974 116.837 377.206 103.372C375.825 96.6519 355.111 98.3617 349.883 98.8244C302.681 102.999 256.061 124.296 216.315 149.388C180.375 174.914 151.618 210.796 131.131 249.653C127.27 256.977 123.39 264.713 121.679 272.719C120.134 279.942 122.318 284.398 130.171 284.95C144.832 285.982 159.951 285.501 174.714 285.47L267.315 285.373C282.654 285.375 295.601 284.455 310.643 287.585C347.713 295.3 354.993 348.613 326.933 370.025C321.459 374.201 312.705 377.494 305.772 378.193C287.609 378.793 268.544 378.422 250.381 378.361L132.981 377.703L60.4414 377.493C25.8607 377.421 8.16147 383.855 0 343.199V326.019Z" fill="black"/>
<path d="M1294.82 0H1323.5C1328.91 1.06121 1334.78 1.46174 1340.25 2.07377C1393.13 7.99181 1445.45 34.3643 1475.44 79.3969C1484.71 93.3125 1495.91 115.262 1498 132.162V138.235C1495.99 151.049 1492.92 161.214 1481.86 169.336C1463.1 183.136 1432.46 180.501 1418.51 161.011C1413.03 153.341 1410.86 143.758 1406.66 135.4C1392.6 107.416 1365.95 94.6015 1336.13 90.0113C1302.5 84.8333 1271.51 88.5869 1243.38 108.766C1219.93 125.669 1204.11 151.151 1199.36 179.668C1194.68 208.635 1201.68 238.275 1218.8 262.091C1235.84 285.903 1261.74 301.842 1290.66 306.311C1320.75 311.17 1355.47 303.834 1380.35 285.886C1399.03 272.421 1404.87 257.27 1414.8 237.84C1427.64 212.712 1472.88 211.159 1488.35 234.601C1500.82 253.504 1497.12 268.986 1488.17 287.885C1475.15 315.983 1455.05 340.203 1429.83 358.158C1403.12 377.237 1372.81 388.393 1340.4 393.361C1334.17 394.316 1313.76 395.04 1309.94 396H1304.96C1301.48 395.127 1286.48 394.756 1280.63 393.838C1249.15 388.903 1223.39 379.457 1196.89 361.747C1153.72 332.585 1123.79 287.557 1113.6 236.442C1103.1 184.771 1113.82 131.048 1143.34 87.3762C1170.47 46.752 1211.77 17.7325 1259.17 6.00938C1273.34 2.45312 1282.43 2.4518 1294.82 0Z" fill="black"/>
</g>
<defs>
<clipPath id="clip0_3042_101">
<rect width="1498" height="396" fill="white"/>
</clipPath>
</defs>
</svg>
