<?xml version="1.0" encoding="UTF-8"?>
<svg id="Layer_2" data-name="Layer 2" xmlns="http://www.w3.org/2000/svg" viewBox="0 0 604.85 578.56">
  <defs>
    <style>
      .cls-1 {
        stroke-width: 0px;
      }
    </style>
  </defs>
  <g id="Layer_2-2" data-name="Layer 2">
    <path class="cls-1" d="m474.79,205.5c-69.48,52.51-122.09,86.41-162.03,108.27-24.06,12.1-43.98,20.97-60.39,27.32.55-.55,2.1-2.08,4.43-4.36l-3.01-3.27c3.08-3.04,6.47-6.34,10.14-9.87l3,3.23c2.5-2.44,5.25-5.1,8.21-7.96l-2.93-3.16c3.16-3,6.45-6.08,9.83-9.24l2.94,3.05s77.37-66.92,112.38-97.74c0,0,65.84-56.44,105.36-100.65,0,0,17.9-20.06,24-31,6.1-10.95,10.48-24.28,2.51-34.98,0,0-6.41-9.37-26.51-9.72,0,0-32.92-2.51-100.41,15.46,0,0-55.98,14.82-130.88,41.42-16.64,5.92-33.45,12.09-50.22,18.39C249.39,47.44,268.32,3.05,266.96.76c-4.87-8.22-70.42,53.14-70.42,53.14,0,0-11.62,30.88-29.13,77.48C103.7,156.4,43.91,181.64,0,200.65l.11,7.64c42.22-17.84,102.08-42.69,163.32-66.3C109.01,286.83,6.48,560.09,4.97,566.95c-2.05,9.35,1.45,11.61,1.45,11.61,7.08-15.11,135.8-291.37,209.63-456.37,71.91-26.32,139.23-47.58,174.9-50.04,0,0,6.16-.7,12.24-.48,5.03.18,9.85,1.09,11.38,4.14.71,1.42,1.04,3.39.48,5.8-6.02,25.72-95.87,117.19-165.38,182.4l-4.42,4.3,4.09,4.24c-3,3.02-5.97,6.03-8.9,9.02l-4.72-5.08c-2.5,2.29-5.31,4.92-8.34,7.81l5.11,5.49c-3.28,3.43-6.47,6.81-9.54,10.12l-5.45-5.92c-2.44,2.46-4.91,5.01-7.36,7.6l5.66,6.16c-3.01,3.36-5.84,6.6-8.47,9.7l-5.8-6.39c-2.18,2.51-4.27,5.02-6.24,7.5l5.85,6.44c-2.45,3.11-4.58,5.99-6.42,8.66l-5.79-6.46c-1.45,2.16-2.74,4.25-3.85,6.27l5.75,6.42c-2.09,3.81-3.12,6.85-2.77,8.88.06,1.54.51,2.8,1.16,3.85l-8.08-9.16c-.39,2.12-.24,4,.25,5.66.95,3.23,3.65,5.2,3.65,5.2,1.52,1.29,3.86,2.29,3.86,2.29,5.52,2.72,16.08,1.71,16.08,1.71,12.17-.83,20.51-3.13,26.95-4.69,2.62-.63,4.62-1.04,5.05-1.16,1.58-.23,3.13,1.51,4.05,2.56l5.2,7.51c.55.94,1.85,3.15.4,3.52-.46.09-.91.17-1.36.25-.45.08-.89.16-1.33.24-.44.08-.87.15-1.3.22-.43.07-.86.14-1.28.21-4.27.74-11.24,1.75-18.13,2.06-7.64.16-12.59-.14-16.22-.9-2.97-.63-6.88-1.34-10.32-3.52,0,0-4.89-3.08-6.77-4.52l.24.28c.77.74,5.86,6.27,10.14,8.54.51.27.98.63,1.52.92.55.3,1.12.58,1.73.85.33.14.68.27,1.03.41,2.32.82,6.58,1.87,6.58,1.87.39.08.77.16,1.17.23.93.16,1.9.3,2.91.43.88.11,1.82.2,2.77.28,5.64.65,15.17.1,15.17.1.2-.01.38-.01.59-.02,1.57-.09,3.2-.21,4.88-.36,1.71-.15,3.47-.33,5.29-.54,1.85-.21,3.76-.46,5.74-.74,1.15-.03,2.62.94,4.37,2.87l43.75,62.67c1.2,2.2,1.12,2.57.72,3.3-.16,0-.36.02-.52.02-2.29-.53-4.52-1.08-6.69-1.64-2.13-.55-4.2-1.12-6.21-1.7-1.98-.57-3.9-1.15-5.76-1.75-6.68-1.72-19.61-7.68-19.61-7.68-.96-.46-1.93-.92-2.85-1.39-1.26-.64-2.48-1.3-3.65-1.96-10.12-5.61-16.01-10.08-18.02-11.69l1.27,1.49c3.35,3.37,9.73,8.34,9.73,8.34,9.54,8.13,16.67,11.22,16.67,11.22,11.75,6.15,27.13,10.96,35.09,13.25.06,0,6.11,1.61,6.67,1.76,2,.71,4.4,3.96,5.46,5.4l4.48,7.03c.13.24.87,1.57,1,1.81.83,1.53,1.24,2.91-.24,2.48-1.11-.38-4.28-1.48-4.28-1.48-10.25-3.46-45.77-16.2-63.91-37.22,5.68,8.14,13.95,15.92,25.24,23.23,12.68,8.58,29.36,16.71,50.82,24.11,24.66,8.93,56.1,16.82,95.94,22.81,47.32,7.03,107.86,10.17,185.65,6.06l-130.05-298.16Zm-38.23,47.17s5.3-3.57,5.29-3.57l5.42-3.7s5.53-3.82,5.53-3.82c0,0,5.65-3.95,5.71-3.99,5.23-3.25,9.74-2.7,12.72,1.54l.06.08.04.09,5.71,11.91.04.08.03.09c2.35,7.59-3.29,12.14-5.11,13.37,0,0-5.72,3.62-5.72,3.62,0,0-5.6,3.49-5.6,3.49,0,0-5.48,3.38-5.48,3.38,0,0-5.37,3.27-5.4,3.28-3.27,1.86-5.91,1.61-7.54,1.07-1.93-.64-3.55-2.06-4.3-3.75l-5.53-10.88c-1.43-2.47-1.63-8.05,4.12-12.3Zm-50.2,31.83s4.27-2.56,4.26-2.55c0,0,4.34-2.63,4.34-2.63l4.43-2.72s4.52-2.8,4.59-2.84c4.3-2.31,8.18-1.5,10.91,2.28l.05.07.04.08,5.42,10.34.04.07.03.08c1.94,5.31-.65,9.18-3.76,11.05l-4.59,2.54s-4.5,2.46-4.5,2.46c0,0-4.41,2.38-4.41,2.38,0,0-4.32,2.3-4.36,2.32-3.92,1.92-8.23.61-10.23-3.12l-5.24-9.53c-1.68-2.99-1.44-7.32,2.97-10.29Zm-40.43,22.73l1.04-.55,2.4-1.28s3.51-1.88,3.51-1.88c0,0,3.58-1.94,3.58-1.94l.88-.48s2.77-1.52,2.85-1.56c3.57-1.65,7.21-.6,9.56,2.84,0,0,5.14,9.09,5.19,9.18,2.03,4.41.11,7.89-2.74,9.42,0,0-3.67,1.77-3.72,1.79,0,0-3.64,1.73-3.64,1.73l-3.57,1.68s-3.5,1.63-3.55,1.64c-3.27,1.37-7.03-.04-8.93-3.34l-4.97-8.43c-1.59-2.64-1.64-6.52,2.11-8.81Zm-35.28,19.36c.3-1.26,1.12-2.29,2.46-3.03,0,0,2.8-1.31,2.8-1.31,0,0,2.85-1.35,2.85-1.35,0,0,2.91-1.4,2.92-1.4,0,0,2.97-1.44,3.06-1.48,2.99-1.17,6.19-.04,8.38,3.05,0,0,4.87,8.08,4.92,8.16,1.22,2.4,1.03,4.19.66,5.26-.44,1.27-1.36,2.29-2.65,2.9,0,0-3.03,1.27-3.03,1.27,0,0-2.97,1.23-2.98,1.23,0,0-2.91,1.19-2.92,1.19,0,0-2.86,1.15-2.91,1.16-3.57,1.27-6.74-1.45-7.87-3.43l-4.71-7.54c-.7-1.03-1.4-2.91-.99-4.68Zm-26.35,11.09c.25-1.03.93-1.86,2.06-2.42l1.59-.65s.7-.29.7-.29l.21-.09s2.12-.88,2.12-.88l1.52-.64s.86-.36.85-.36l.61-.26s1.81-.77,1.92-.81c3.8-1.24,6.45,1.97,7.32,3.03l.05.06.04.06,4.62,7.24.04.06.03.07c.98,2.06,1.21,3.71.71,5.04-.36.94-1.09,1.67-2.16,2.11l-1.91.69s-.57.2-.57.2l-.39.14s-2.04.72-2.04.72l-1.14.4s-1.24.43-1.24.43c0,0-2.34.8-2.39.81-3.02.88-5.89-1.66-6.98-3.44l-4.47-6.8c-.14-.2-1.59-2.33-1.07-4.44Zm-21.55,7.87c.22-.87.79-1.53,1.63-1.93,0,0,.05-.02.1-.04l.05-.02,1.82-.64s1.9-.69,1.9-.69l1.53-.56s.41-.15.41-.15l1.97-.73s.06-.02.06-.02h.06c3.23-.86,5.69,2.08,6.5,3.05l.04.05.04.06,4.39,6.55.04.05.03.06c1.04,1.98,1.32,3.52.87,4.7-.21.55-.7,1.3-1.88,1.73,0,0-2.03.61-2.03.61,0,0-2,.59-1.99.59l-1.38.4s-.57.17-.64.18c0,0-1.86.53-1.92.55-2.3.53-4.88-1.33-6.22-3.4l-4.25-6.17c-.78-1.07-1.51-2.76-1.13-4.23Zm50.9-123.89l5.24-4.86s.88-.81.88-.81l.85.84,20.92,20.74s.91.9.91.9l-.93.89-5.16,4.93s-.88.84-.88.84l-.86-.86-21-20.82-.93-.92.96-.89Zm-26.98,25.14l6.95-6.51s.89-.83.89-.83l.85.86,21.15,21.3s.89.9.89.9l-.91.88-6.76,6.55s-.88.86-.88.86l-.87-.87-21.34-21.35-.91-.91.94-.88Zm-22.83,21.53l7.78-7.37s.89-.84.89-.84l.86.88,21.4,21.83s.87.89.87.89l-.89.87-7.65,7.55s-.89.88-.9.88l-.88-.9-21.53-22.01s-.89-.91-.89-.91l.92-.87Zm-18.91,18.09l9.24-8.88s.9-.87.9-.86l.87.9,21.57,22.38s.85.88.84.88l-.86.87-9.41,9.49s-.92.92-.92.93l-.89-.95-21.39-23s-.84-.9-.84-.9l.89-.85Zm-18.15,17.74l9.94-9.77s.92-.9.91-.9l.88.94,21.6,23.22s.8.86.8.87l-.81.85-9.75,10.2s-.92.96-.93.97l-.9-.98-21.77-23.67s-.82-.89-.82-.89l.86-.85Zm-30.7,51.23c-.57-.44-1.17-1.04-1.66-1.88-1.3-2.23-1.39-5.23-.28-8.94l.64-2.14,1.49,1.67,8.86,9.92.5.55c-3.37.5-6.61.8-9.54.82Zm15.04-1.77l-13.56-14.91-.61-.67.44-.79c.84-1.49,1.64-2.82,2.53-4.18.79-1.19,2.05-2.8,3.87-4.92l.92-1.07.95,1.05,19.49,21.46.46.51c-4.54,1.28-9.55,2.54-14.5,3.52Zm23.44-6.45l-.27.33c-.34.11-.7.22-1.05.33l-.56-.62-22.34-24.6-.78-.86.79-.84c2.61-2.77,5.62-5.89,8.96-9.27l.92-.94.89.97,22.03,23.96.77.84-.77.85c-3.33,3.67-6.22,6.98-8.59,9.85Zm11.78-6.22l1.64,1.83c-1.83.7-2.64,1.04-4.45,1.6.81-1,1.55-2.13,2.81-3.43Zm14.22,22.01s-1.39.33-1.39.33c0,0-1.6.37-1.61.37,0,0-1.57.36-1.64.37-1.95.33-4.29-1.44-5.56-3.33,0,0-4.04-5.64-4.02-5.62-.29-.38-1.69-2.36-1.23-4.07.2-.72.7-1.29,1.41-1.59,0,0,.06-.03.06-.03l.06-.02s1.52-.45,1.52-.45c0,0,1.56-.47,1.56-.48,0,0,1.58-.49,1.58-.49l1.61-.5s.06-.02.07-.02h.07c2.75-.56,4.96,2.06,5.87,3.14,0,0,4.17,5.97,4.23,6.06,1.1,1.93,1.41,3.33.98,4.41-.19.48-.62,1.12-1.67,1.45l-.6.15-1.07.26s-.24.06-.24.06Zm51.2,81.05c-2.05-.62-3.76-2.76-4.83-4.44l-44.85-65.55c-1.62-2-1.19-2.98-1-3.4.16-.09.37-.19.54-.28,2.33-.44,4.73-.92,7.2-1.45,2.52-.54,5.11-1.12,7.79-1.75,2.72-.65,5.53-1.35,8.43-2.09,2.94-.77,5.98-1.6,9.11-2.48,1.23-.22,3.23.13,5.79,3.08l49.37,78.67c.86,1.87,1.73,4.39-.66,4.54-3.51-.3-6.93-.64-10.25-1-3.27-.36-6.44-.74-9.53-1.16-3.04-.4-5.99-.83-8.86-1.29-2.82-.44-5.57-.91-8.24-1.4Zm25.28,27.65c-.28.37-.95.94-2.32.64,0,0-2.05-.55-2.05-.55l-.13-.03s-1.88-.51-1.88-.51c0,0-1.98-.55-1.98-.55,0,0-1.95-.55-2-.57-2.06-.67-4.49-3.27-5.81-5.47,0,0-4.56-7.28-4.55-7.26-.75-1.14-1.88-3.26-1.02-4.62.19-.31.79-1.02,2.2-.84,0,0,1.88.41,1.88.41,0,0,1.92.4,1.92.4,0,0,1.95.4,1.95.4l1.36.27s.63.12.73.15c2.91.84,5.21,4.13,6.12,5.43l4.71,7.73c1.35,2.59,1.58,4.01.85,4.97Zm24.19,5.49c-.36.49-1.09,1.02-2.54.79l-2.43-.51s-2.39-.52-2.38-.52c0,0-2.35-.52-2.35-.52,0,0-2.32-.53-2.36-.54-2.4-.64-5.15-3.53-6.5-5.9,0,0-4.81-8.02-4.79-8-.6-.95-1.89-3.35-.95-4.92.26-.43.9-1.14,2.4-1.02,0,0,2.25.35,2.25.35l2.29.35s2.32.34,2.32.34l2,.28s.37.05.47.07c3.41.78,5.89,4.41,6.87,5.85l4.97,8.55c1.29,2.68,1.51,4.3.74,5.33Zm28.77,4.94c-.4.55-1.2,1.16-2.78.99,0,0-2.89-.45-2.89-.45l-.25-.04s-2.59-.42-2.59-.42c0,0-2.8-.46-2.79-.46,0,0-2.75-.47-2.8-.48-3.17-.67-6.17-4.29-7.3-6.39,0,0-5.07-8.9-5.06-8.88-.47-.79-1.92-3.48-.88-5.28.28-.48.99-1.29,2.69-1.25l2.03.21s.65.07.65.06c0,0,2.73.26,2.72.26,0,0,2.77.25,2.77.25,0,0,2.82.24,2.92.26,4.01.68,6.67,4.71,7.73,6.32l5.25,9.54c1.25,2.82,1.41,4.62.57,5.77Zm34.4,3.9c-.66.97-1.79,1.47-3.22,1.39l-3.45-.35s-3.39-.37-3.39-.37c0,0-3.33-.38-3.34-.38,0,0-3.28-.39-3.33-.39-3.75-.59-7.05-4.58-8.23-6.93,0,0-5.36-9.96-5.34-9.93-.34-.59-1.95-3.61-.78-5.7.38-.68,1.21-1.51,3.05-1.57l3.2.15s3.26.13,3.26.13c0,0,3.32.12,3.32.12,0,0,3.38.1,3.48.11,3.19.36,6.45,2.89,8.75,6.82l5.55,10.72c1.25,2.75,1.4,4.81.47,6.18Zm1.98-36.05c-5.42.26-10.69.46-15.82.59-5.03.13-9.91.19-14.67.21-4.66,0-9.2-.04-13.61-.13-4.33-.09-8.54-.23-12.63-.41-3.24-.51-5.41-3.51-6.41-5.25l-50.7-82.94c-.77-1.04-2.28-3.62.4-5.2,3.68-1.21,7.48-2.5,11.38-3.87,3.99-1.41,8.09-2.9,12.32-4.48,4.31-1.63,8.76-3.36,13.34-5.19,4.68-1.89,9.49-3.89,14.46-6,1.63-.55,4.84-.89,7.95,3.08l56.13,102.99c1.95,5.2-.29,6.26-2.14,6.6Zm39.14,38.55c-.77,1.15-2.07,1.78-3.72,1.78,0,0-4.13-.19-4.13-.19,0,0-4.06-.21-4.06-.21l-3.99-.23s-3.92-.25-3.97-.25c-3.46-.36-7.3-3.45-9.33-7.52,0,0-5.67-11.22-5.67-11.22-1.26-2.45-1.48-4.65-.62-6.2.44-.8,1.4-1.8,3.5-1.98,0,0,3.84-.04,3.84-.04,0,0,3.91-.07,3.91-.07,0,0,3.98-.09,3.98-.09,0,0,4.05-.11,4.16-.11,3.78.2,7.49,2.93,9.95,7.36l5.88,12.15c1.24,2.97,1.33,5.25.28,6.82Zm49.45.17c-1.25,1.88-3.39,2.2-4.3,2.26,0,0-4.99.07-4.99.07,0,0-4.9.04-4.9.04,0,0-4.81,0-4.81,0,0,0-4.73-.02-4.77-.02-4.06-.17-8.54-3.62-10.65-8.17,0,0-6.02-12.77-6.01-12.76-1.23-2.58-1.4-5.07-.47-6.82.52-.98,1.64-2.21,4.12-2.56l4.65-.34s4.72-.37,4.72-.37c0,0,4.81-.41,4.81-.41,0,0,4.9-.45,5-.45,3.16-.03,7.69,1.3,11.41,7.93l6.24,13.92c1.17,3.38,1.14,5.94-.04,7.7Zm-14.89-46.16c-7.33,1.08-14.45,2.04-21.37,2.9-6.76.81-13.34,1.53-19.73,2.15-4.97-.04-7.66-3.92-8.82-6.21l-57.71-109.72c-1.25-2.3-1.93-5.54,1.96-7.96,5.9-2.85,11.98-5.85,18.25-9.02,6.42-3.29,13.03-6.75,19.85-10.42,6.99-3.8,14.19-7.81,21.62-12.04,7.62-4.4,15.48-9.04,23.59-13.94,4.92-2.35,8.46-1.64,11.45,2.33l64.1,142.76c.88,3.54,1.34,8.5-4.82,10.54-8.64,1.77-17.03,3.39-25.18,4.85-7.95,1.39-15.68,2.66-23.18,3.79Zm69.74,45.43s-6.05.49-6.05.49c0,0-5.94.44-5.94.44,0,0-5.83.39-5.83.39,0,0-5.72.35-5.77.35-5.99.13-10.79-5.12-12.27-8.86,0,0-6.39-14.69-6.37-14.65-.97-2.04-1.57-5.1-.35-7.57.62-1.24,1.97-2.85,5-3.48,0,0,5.63-.79,5.62-.79,0,0,5.74-.85,5.74-.85,0,0,5.85-.91,5.85-.91,0,0,5.96-.97,6.06-.98,3.79-.31,9.15.89,13.15,8.37l.03.05.02.06,6.64,16.14c1.13,3.76,1,6.67-.37,8.77-1.52,2.33-4.07,2.88-5.16,3.02Z"/>
  </g>
</svg>