<svg width="600" height="191" viewBox="0 0 600 191" fill="none" xmlns="http://www.w3.org/2000/svg">
<path d="M95.7383 45.3906C98.6851 45.8129 131.295 62.2774 136.551 64.7881C137.773 69.1804 138.654 73.7263 139.695 78.1729L146.817 108.778C144.14 112.507 140.611 116.509 137.678 120.176L118.634 144.153L96.79 144.145L73.3223 144.152C64.4671 132.444 54.4247 120.376 45.2295 108.823C46.128 106.082 47.2974 100.256 47.9561 97.3291L52.792 75.793C53.5291 72.5302 54.4998 67.6208 55.6152 64.6133C69.0425 58.3174 82.4176 51.9092 95.7383 45.3906ZM62.2607 78.3008C59.9943 81.1322 56.5776 85.0689 54.5791 87.873L62.8271 123.616C72.6267 128.737 82.7952 133.247 92.7324 138.102C93.8387 138.642 94.8467 139.122 95.916 139.745C100.345 137.569 104.794 135.434 109.262 133.338C115.532 130.338 123.265 126.88 129.258 123.578C132.001 111.834 134.941 99.5752 137.357 87.7861C129.785 78.1994 122.152 68.661 114.458 59.1719L77.5654 59.1699L62.2607 78.3008Z" fill="black"/>
<path d="M95.5854 82.0089C102.642 82.0053 117.634 80.4409 118.535 90.4356C119.322 99.1702 115.059 102.027 107.019 102.983C111.007 106.183 115.013 109.361 119.036 112.518L119.162 112.876C118.375 113.429 108.595 113.158 106.954 113.146C102.88 110.075 99.1176 106.436 94.9291 103.252C91.7353 103.128 88.0413 103.22 84.8109 103.226L84.8656 113.186L75.9623 113.176C75.6926 103.193 75.9241 92.0823 75.9027 82.0128L95.5854 82.0089ZM108.51 90.5401C105.25 88.1574 89.5909 89.1391 84.8217 89.1925L84.8422 96.3536C88.7984 96.3568 105.579 96.8812 108.419 95.5157C109.113 94.5507 109.809 93.5499 109.64 92.2872C109.54 91.5431 109.103 90.9736 108.51 90.5401Z" fill="black"/>
<path d="M220.705 74.8115C231.874 74.7921 254.011 72.1605 254.835 88.1377C255.48 100.658 248.581 104.608 237.195 105.352C242.435 109.851 249.069 114.733 254.627 118.983L255.652 119.884L255.648 120.293C253.548 120.606 240.169 120.391 237.606 120.301C232.313 116.437 225.098 110.145 219.922 105.845C215.231 105.701 209.869 105.828 205.126 105.828C205.095 110.684 205.096 115.541 205.127 120.396L191.949 120.409C191.466 106.258 191.917 89.1717 191.936 74.7988L220.705 74.8115ZM228.538 85.293L205.119 85.3369C205.096 88.904 205.1 92.472 205.132 96.0391C211.285 95.9678 217.439 95.9554 223.593 96.002C228.351 96.0125 235.487 96.4959 239.697 94.3867C241.554 92.6442 242.575 89.1347 240.613 87.2461C238.423 85.1381 231.533 85.2944 228.538 85.293Z" fill="black"/>
<path d="M362.535 74.8782C375.57 74.3756 391.358 74.8005 404.589 74.8023L404.613 85.3618L403.207 85.3481L378.006 85.3056C367.49 85.2977 353.57 82.7693 353.813 97.6807C354.033 111.036 364.904 109.93 374.709 109.905L391.449 109.843C391.308 107.807 391.399 104.581 391.396 102.457C385.524 102.247 378.542 102.414 372.588 102.461L372.562 98.1075L372.588 92.6735C382.552 93.0287 394.494 92.7081 404.613 92.7064L404.621 120.398L376.908 120.387C370.052 120.387 361.814 120.737 355.198 119.295C339.396 115.723 336.479 92.3022 346.049 81.4279C350.803 76.0256 355.81 75.3014 362.535 74.8782Z" fill="black"/>
<path d="M270.254 74.7969C289.855 75.034 309.86 74.8016 329.511 74.8303L329.549 85.3529L283.482 85.3359L283.508 92.8097C294.371 92.5632 305.699 92.7121 316.596 92.7118L316.584 102.467C310.885 102.35 304.882 102.436 299.156 102.426L283.478 102.411L283.488 109.595L329.514 109.599L329.555 120.389L270.207 120.38L270.254 74.7969Z" fill="black"/>
<path d="M440.181 74.7656C446.659 74.8275 453.139 74.8316 459.617 74.7773C463.02 80.5798 466.288 86.9134 469.524 92.8457L484.602 120.373C479.638 120.416 474.673 120.399 469.709 120.323L464.915 111.231L459.714 111.216L434.341 111.242C433.175 113.884 430.956 117.797 429.535 120.367L415.299 120.406C423.3 105.152 432.077 90.0337 440.181 74.7656ZM449.426 82.8672C446.383 88.8177 443.115 95.2533 439.785 101.017L449.801 101.003L459.483 101.022C457.571 97.8077 450.846 84.2687 449.426 82.8672Z" fill="black"/>
<path d="M494.582 74.6172C498.911 74.6647 503.242 74.6837 507.57 74.6749L507.565 109.588C522.743 109.758 538.341 109.588 553.549 109.585L553.573 120.421C534.095 120.175 514.057 120.304 494.556 120.402L494.582 74.6172Z" fill="black"/>
<path d="M561.7 113.555C562.909 113.03 564.309 113.215 565.34 114.034C566.371 114.853 566.868 116.175 566.631 117.472C566.397 118.768 565.466 119.83 564.212 120.233C562.399 120.816 560.449 119.873 559.778 118.09C559.108 116.307 559.954 114.312 561.7 113.555Z" fill="black"/>
</svg>
