<svg width="723" height="550" viewBox="0 0 723 550" fill="none" xmlns="http://www.w3.org/2000/svg">
<path d="M529.117 0.627197C537.219 -0.766706 540.224 0.443603 548.198 1.54224C554.129 2.35939 560.441 2.40679 566.361 3.78247C573.302 5.16747 580.211 7.55789 586.961 9.72095C616.499 19.1907 640.971 30.8098 663.328 52.9543C677.862 67.4105 690.356 83.7775 700.474 101.603C704.007 107.752 707.107 113.762 710.111 120.113C711.693 123.45 719.565 124.489 719.138 130.466C719.307 133.64 716.875 136.232 714.799 138.308C714.238 138.871 713.662 139.421 713.076 139.958C717.256 171.08 719.795 197.59 716.3 229.105C718.365 229.634 721.365 230.926 720.567 233.602C719.921 235.78 717.44 236.915 715.403 237.946C708.279 241.548 690.949 248.39 687.605 256.151C685.456 261.135 692.441 275.185 694.771 280.371C698.634 289.185 702.75 297.886 707.117 306.462C710.623 313.443 714.224 320.368 717.804 327.303C719.604 330.792 720.984 336.885 723 340.457V345.382C721.489 347.928 719.579 351.259 717.316 353.134C706.104 362.42 689.763 361.971 681.629 375.16C682.755 379.837 683.401 386.511 682.709 391.216C681.664 398.324 677.11 401.306 671.801 405.241C676.267 418.823 670.491 430.011 656.366 433.085C656.896 444.75 657.471 467.754 644.928 473.437C626.108 481.085 601.498 469.954 583.392 464.36C566.503 459.143 538.024 447.224 521.051 456.372C506.954 463.971 494.898 487.159 484.583 499.505C471.45 515.225 452.733 539.165 434.838 549.443C428.851 547.84 419.509 545.31 413.864 543.379C417.384 540.28 421.441 537.768 425.222 534.997C429.55 531.817 433.691 528.316 437.694 524.74C457.22 507.309 498.319 462.366 504.79 437.766C505.8 433.926 505.857 430.057 503.76 426.563C499.012 418.661 487.669 419.091 479.651 418.354C475.687 417.99 471.705 417.464 467.825 416.557C463.119 415.452 458.498 413.515 454.085 411.571C430.499 401.18 415.213 382.516 405.113 359.264C401.788 351.604 400.665 343.45 396.097 336.211C394.836 334.215 392.912 331.911 390.441 331.502C386.632 330.873 376.614 338.877 373.323 341.202C352.427 355.957 332.754 371.9 312.954 388.065L295.588 402.418C292.792 404.726 288.664 408.323 285.795 410.215L285.386 410.48C284.137 404.642 283.094 400.184 281.166 394.551C306.578 375.563 332.313 353.956 345.913 324.732C350.711 314.421 355.855 301.181 357.874 290.012C355.053 289.727 352.156 289.575 349.318 289.51C317.66 288.783 286.051 286.937 254.396 286.134C242.607 285.835 230.898 285.782 219.136 284.74C208.152 283.724 194.453 284.205 185.411 276.893C178.711 271.475 180.839 266.676 185.457 261.275C179.301 260.046 170.101 259.374 163.629 258.539C156.881 257.618 150.226 256.121 143.734 254.063C137.254 252.065 125.769 248.102 124.055 240.169C123.339 236.855 125.356 234.045 127.273 231.514C121.683 230.163 116.024 230.064 110.361 228.768C97.3161 225.782 81.8435 221.211 71.6943 212.194C69.4675 210.215 66.8118 206.277 66.834 203.283C66.8538 200.569 68.9247 198.696 70.7314 196.963C62.0385 195.133 52.2389 194.031 43.5449 191.329C30.075 187.143 14.8236 179.615 5.51074 168.679C4.37051 167.34 2.54429 163.992 1.1748 161.45L0 159.281V155.598C4.59116 151.203 7.65228 149.418 14.1055 148.78C24.4382 147.757 35.3086 147.96 45.6787 148.188C55.8356 148.472 65.9875 148.929 76.1289 149.561C81.5569 149.938 88.6978 150.962 93.9141 150.704C88.3757 148.402 83.767 147.294 76.9473 145.008C64.5768 140.862 41.4112 125.679 45.5215 110.532C47.8101 102.099 70.8907 102.541 79.5098 102.549C94.5303 102.592 109.547 103.089 124.537 104.038C133.177 104.544 144.226 105.665 152.59 105.47C147.715 103.453 142.804 102.776 138.032 100.971C126.667 96.6722 113.907 87.83 109.062 76.4387C106.7 70.8831 105.023 64.2726 111.085 60.6086C113.35 59.1951 116.889 59.7529 119.535 59.5803C126.74 59.8284 133.908 60.2689 141.116 60.4641L233.938 63.219C267.172 63.6715 300.399 64.5492 333.611 65.8508C349.855 66.3294 367.713 66.3648 383.755 67.4211L384.118 67.0608C386.9 64.273 390.406 59.7618 393.071 56.6086C399.327 49.2113 405.173 43.3468 412.738 37.2268C430.686 22.6138 452.74 15.6802 474.666 9.48071C482.517 7.10531 490.267 5.3259 498.295 3.74536C508.409 1.75357 519.144 2.34271 529.117 0.627197ZM690.423 295.47C683.168 282.118 678.974 262.216 659.981 263.944C647.558 267.27 646.153 291.153 625.547 277.229C612.1 268.14 602.695 266.764 586.957 270.294C580.98 271.635 574.566 275.048 571.463 280.566C566.99 287.893 573.14 292.798 575.177 299.992C581.821 323.458 582.612 350.227 570.895 372.256C568.903 376.05 566.563 379.654 563.901 383.014C557.356 391.432 546.109 402.521 550.038 413.815C554.995 428.059 584.694 445.46 597.128 451.823C598.321 452.434 599.532 453.009 600.757 453.556C611.274 457.646 622.716 463.262 634.076 458.441C646.767 453.051 648.261 441.506 645.98 428.981C651.223 425.928 655.6 423.69 659.656 418.992C666.095 411.531 663.183 408.45 657.965 402.154L658.294 401.9C666.339 395.78 674.134 397.011 675.521 384.743C676.171 379.005 677.209 372.739 677.548 366.902C673.432 366.549 668.916 366.256 664.898 365.483C677.614 361.265 691.249 357.101 702.531 349.776C710.559 344.532 709.941 337.346 706.637 329.444C701.839 317.969 696.361 306.399 690.423 295.47ZM568.671 324.027C565.893 280.249 528.15 247.007 484.36 249.771C440.55 252.536 407.284 290.29 410.062 334.086C412.845 377.882 450.615 411.129 494.422 408.337C538.208 405.549 571.445 367.806 568.671 324.027ZM221.621 264.166C215.267 263.938 204.55 263.254 198.552 263.629C193.354 264.098 191.087 265.118 187.457 269.005C190.163 274.144 193.553 275.943 199.035 277.498C214.817 281.976 233.008 281.056 249.323 281.588L312.429 283.787C320.988 284.13 329.545 284.526 338.099 284.974C342.688 285.195 353.942 285.907 358.009 284.958C363.65 283.242 366.975 281.379 368.723 275.487C364.903 267.745 357.973 269.077 350.502 268.67C324.103 267.233 297.496 267.217 271.094 266.242L221.621 264.166ZM157.162 234.997C152.335 234.73 146.737 234.227 141.975 234.651C139.429 235.067 133.758 235.736 132.334 238.112C130.172 241.719 133.987 244.924 136.899 246.565C148.002 252.821 160.905 252.683 173.273 253.852C186.134 255.067 199.19 255.098 212.112 255.658L312.337 259.137L350.907 260.566C355.665 260.697 366.181 261.192 370.611 260.258C374.675 258.926 377.538 256.838 379.571 253.04C381.456 249.524 381.033 245.695 377.16 243.939C374.4 242.687 371.431 242.553 368.444 242.329C352.14 241.672 335.763 241.277 319.453 240.772L233.532 237.627L173.736 235.72C168.21 235.526 162.685 235.284 157.162 234.997ZM184.456 67.3147C167.343 66.8273 144.812 66.0225 127.789 66.7249C109.601 68.4197 123.504 81.9244 130.915 87.1614C160.033 107.738 193.469 105.153 227.456 106.917C262.62 108.743 299.221 108.565 334.497 110.633C348.211 111.465 367.244 110.163 379.141 116.947C388.651 122.371 399.581 140.304 406.176 149.679L434.298 189.182C443.508 201.762 452.602 214.429 461.576 227.18C463.793 230.32 470.233 238.949 471.535 241.649C491.989 235.688 513.637 240.422 532.372 249.929C537.953 252.761 542.642 256.632 547.817 260.038C550.303 257.095 552.711 253.571 555.21 250.826C560.601 244.999 569.08 239.276 577.072 238.046C599.373 234.616 621.717 235.6 644.226 234.072C653.796 233.421 671.638 234.497 678.89 226.74C681.558 223.89 682.751 218.01 683.909 214.415C687.884 200.574 690.688 185.847 689.417 171.393C688.587 161.935 684.072 148.214 673.043 146.634C665.428 145.543 656.596 145.944 648.879 146.184C631.323 146.609 613.794 147.77 596.337 149.662C565.539 152.996 534.685 155.794 503.788 158.055C492.756 158.798 481.469 160.633 470.395 159.518C455.303 157.998 450.894 148.263 445.863 136.031C438.323 120.253 431.954 107.256 416.989 96.5627C411.613 92.7217 399.938 88.3169 394.699 83.9983C394.78 83.5603 394.851 83.173 394.914 82.8372C397.399 80.3923 402.741 82.983 405.71 83.8333C419.824 87.8731 431.4 97.1878 441.267 107.734C452.154 118.902 455.377 134.704 465.742 145.695C468.457 148.574 476.336 150.36 480.096 150.42C492.678 150.94 504.988 149.446 517.468 148.454C527.045 147.694 536.76 147.241 546.373 146.58C591.095 143.642 635.781 140.221 680.429 136.319C683.515 136.021 703.795 134.121 705.32 132.849C705.783 131.748 705.755 131.802 705.72 130.597C703.672 128.985 687.306 130.721 683.85 130.939C670.728 131.642 657.612 132.511 644.512 133.545C628.615 134.723 613.078 135.233 597.167 137.117C585.383 138.513 572.868 138.279 561.017 139.753C551.739 140.736 540.806 140.141 531.747 140.953C519.67 142.037 506.774 142.212 495.047 142.466C470.3 143.004 469.421 139.687 459.967 118.584C452.564 102.058 434.643 85.5429 417.67 79.1614C410.56 76.3764 399.066 73.015 391.434 72.5872C348.484 70.1812 305.14 70.1775 262.146 69.3284L184.456 67.3147ZM103.197 197.039C98.2935 196.825 90.0771 196.166 85.4873 196.533C82.3554 197.149 78.6069 198.067 76.7559 200.97C75.9894 202.159 75.744 203.611 76.0762 204.987C78.8773 216.601 110.379 222.952 120.293 224.006C139.166 226.014 158.395 226.571 177.357 227.225L265.244 230.096L339.858 233.029C348.391 233.377 377.637 235.528 384.214 232.818C395.634 225.567 400.834 207.688 382.759 206.924C351.847 205.619 320.891 204.925 289.978 203.751L137.206 198.404C125.867 198.016 114.531 197.561 103.197 197.039ZM79.1914 155.898C62.7475 155.009 40.3612 153.085 24.2432 153.891C20.1305 154.116 11.2317 154.05 11.4648 160.185C11.6091 163.977 16.9144 169.372 19.7588 171.518C47.615 192.533 85.4805 190.472 118.33 191.311L195.438 193.806C243.942 195.809 292.46 197.463 340.988 198.767C349.783 198.916 358.577 199.146 367.367 199.455C372.906 199.653 379.282 200.092 384.758 199.929C388.27 199.479 393.12 198.55 395.065 195.466C400.654 186.597 394.462 175.601 386.646 170.482C381.623 167.191 377.799 166.367 371.918 165.916C353.017 164.971 333.998 164.9 315.077 164.211L156.744 159.189C149.058 158.938 141.451 158.378 133.796 158.076C115.587 157.538 97.3847 156.812 79.1914 155.898ZM119.853 109.111C104.527 108.698 86.7172 108.003 71.4873 108.359C67.1282 108.558 55.6976 108.178 56.2871 115.152C56.8971 122.359 62.894 128.033 68.165 132.33C80.7789 142.671 96.0769 147.089 111.762 150.217C115.806 151.023 122.609 151.049 126.938 151.159L148.559 151.684L214.542 153.884L318.352 157.541C336.385 158.4 354.425 159.091 372.472 159.615C395.747 158.841 385.835 135.411 374.672 125.837C369.549 121.442 363.848 118.411 357.08 117.495C344.28 115.908 331.379 115.634 318.556 115.317C304.652 114.91 290.751 114.414 276.854 113.826C245.624 112.466 214.689 112.09 183.58 110.954L119.853 109.111ZM520.369 118.044C514.379 121.518 513.906 126.081 507.364 129.839C505.013 129.017 499.26 125.854 498.323 125.875L497.896 126.296C497.98 127.781 500.052 129.895 501.076 130.776C509.715 138.196 514.248 131.158 520.952 126.453C521.383 126.151 522.572 127.181 522.883 127.447C525.329 129.58 526.473 131.138 529.318 132.882L529.608 133.062C534.515 131.774 536.517 130.439 540.888 127.963C542.303 129.216 544.022 130.663 545.332 131.982C548.53 135.508 549.869 136.944 554.878 136.939C558.355 136.935 568.512 137.075 571.29 135.926C571.915 134.22 570.704 130.817 568.815 130.464C563.958 129.556 557.943 134.31 553.579 130.365C550.571 127.7 549.105 124.174 546.253 121.22C544.516 121.703 539.729 123.463 538.32 124.37C526.053 132.271 527.073 118.041 520.369 118.044ZM538.54 109.118C530.773 108.266 532.669 99.6885 522.929 100.5C521.824 100.941 520.416 101.484 519.431 102.215C516.448 104.42 511.497 111.585 507.19 110.102C503.904 108.969 501.129 103.034 497.211 103.281C491.234 105.932 491.841 113.724 485.024 115.758C481.233 116.89 477.219 114.376 475.369 114.778C474.762 118.445 480.788 121.168 483.768 121.418C489.67 121.914 494.75 115.15 499.756 112.004C502.509 114.938 504.359 116.673 507.988 118.508C510.332 117.643 510.559 117.565 512.536 116.299C515.258 114.556 520.32 107.815 523.493 108.331C526.169 110.557 530.851 120.089 534.833 119.751C538.377 119.45 544.171 114.333 548.128 112.45L550.023 115.019C550.786 116.561 551.679 118.376 552.258 119.978C556.572 131.902 562.394 124.484 570.75 121.607C572.692 123.453 574.114 125.934 575.625 128.154C580.2 134.873 586.251 134.436 593.559 134.224C595.239 134.175 598 134.328 599.222 133.239C599.691 131.631 599.861 131.966 599.434 130.647C596.278 127.778 586.485 129.311 583.109 126.082C579.42 122.557 579.177 111.494 572.505 112.096C568.477 112.46 565.095 114.994 560.795 115.981C558.599 112.105 555.534 105.27 551.774 103.468C547.994 103.246 541.777 109.473 538.54 109.118ZM539.521 89.4426C534.106 86.1582 529.152 78.959 523.814 79.6487C521.569 80.6375 521.018 80.9583 519.102 82.177C515.543 84.4397 508.606 91.7633 504.014 89.7131C499.88 87.869 496.42 82.3325 490.931 84.6877C484.322 87.5219 485.66 100.028 476.823 101.128C474.214 101.452 471.097 100.254 468.569 99.7229C467.546 99.5073 466.515 99.099 465.714 99.7883C466.113 101.296 469.24 103.415 470.617 104.216C482.634 111.211 487.711 99.0715 494.535 92.887C500.71 95.8753 505.691 102.823 511.194 100.529C516.581 98.2817 518.957 92.5521 524.771 88.9553L525.16 89.137C531.832 92.323 536.284 101.9 542.324 100.506C545.413 99.7938 550.998 91.5962 553.91 93.4954C558.99 96.8074 559.83 102.607 564.96 107.04C571.148 109.897 573.115 106.067 577.577 105.638C588.877 104.554 579.953 119.037 591.899 123.639C596.725 123.194 600.81 121.534 605.209 121.113C608.072 122.254 608.824 122.87 610.903 125.165C611.539 127.977 611.62 130.338 611.8 133.193C615.443 133.052 619.27 132.963 622.896 132.743C620.866 128.005 617.046 117.012 612.396 115.2C605.767 112.619 596.832 118.52 592.889 110.693C590.612 106.178 591.776 97.1266 586.88 95.4426C582.125 93.8075 575.057 97.5571 569.928 98.0422C568.103 96.5652 567.163 95.6404 565.709 93.9495C562.669 90.4186 559.502 81.8781 553.698 83.2288C548.827 84.3618 544.63 87.9768 539.521 89.4426ZM541.188 70.0051C533.569 68.3258 530.78 60.029 521.976 60.5979C514.096 62.9499 513.361 69.2798 504.027 71.7483C500.719 70.8762 490.768 64.922 488.441 66.8645C482.045 72.207 479.768 82.3367 470.755 85.2463C464.143 87.5987 460.22 82.9789 454.194 82.1858C453.951 82.6349 453.587 83.1607 453.915 83.6194C458.391 89.8488 469.068 91.2088 475.041 89.0608C477.632 88.1178 479.993 86.6404 481.974 84.7249C484.635 82.1799 489.49 74.1063 492.868 75.8606C498.774 78.9319 501.846 82.6602 509.009 80.4163C515.448 78.3982 519.257 67.885 526.254 71.4954C532.344 74.6382 533.484 79.0041 540.852 81.2629C549.628 79.3613 555.549 73.1421 562.729 77.4163C568.219 80.6839 570.09 89.4381 576.515 89.7502C581.005 89.9684 584.892 88.3884 589.785 88.8479L590.177 89.0959C599.006 94.7847 595.109 103.387 602.529 108.218C608.118 110.444 614.857 107.237 620.382 109.031C620.901 109.199 621.473 111.302 621.516 111.811C622.73 126.296 633.207 133.392 647.138 130.901C647.703 130.799 648.003 130.67 648.392 130.229C648.013 125.55 636.738 124.5 633.303 121.352C627.951 116.449 630.422 110.051 628.367 103.744C621.72 96.9296 613.922 102.922 607.052 97.5618C601.315 93.084 600.33 79.967 591.67 79.842C585.58 79.7543 578.682 84.5804 573.221 78.9885C569.14 74.8117 567.696 64.878 560.12 65.1731C554.394 65.3962 548.266 71.5654 541.188 70.0051ZM544.982 51.2991C535.896 50.0786 533.686 40.6693 523.604 41.2327C516.296 44.1155 512.01 52.3285 505.098 53.0588C491.962 54.4466 483.799 41.1181 474.596 58.1038C471.408 63.9816 463.359 71.4703 456.026 69.5266C452.323 68.8143 447.059 65.1422 443.536 65.4983L443.109 65.9661C444.116 68.8252 447.47 70.3646 449.771 71.6125C461.612 78.0679 470.137 73.9578 477.89 63.9905C479.616 61.7708 484.739 56.7768 487.372 56.8625C494.408 57.091 498.93 63.7057 506.891 60.8245C514.29 58.1453 519.07 48.9416 527.698 53.6458C531.377 55.4842 535.211 57.7358 539.179 58.8645C547.365 61.1921 556.128 55.4216 563.831 57.0833C569.649 58.3383 572.377 66.7638 577.69 70.5168C588.634 78.2473 596.493 66.2109 605.071 78.8811C608.421 85.2233 608.722 90.5776 616.025 94.2249C620.495 93.9951 623.429 93.1076 627.799 93.969C642.534 96.8726 631.958 110.78 638.736 117.926C645.112 124.649 655.819 117.674 656.624 130.703C659.614 130.531 663.391 130.408 666.286 130.062C666.028 125.55 665.171 122.717 661.711 119.347C655.695 113.486 644.568 117.826 643.59 107.532C643.043 101.732 647.014 93.5183 642.481 89.2708C637.786 84.8675 626.61 87.4553 621.861 85.0588C611.006 79.5823 614.338 66.9256 598.424 64.175C593.252 63.2811 589.591 64.1134 584.716 63.8889L584.405 63.6047C577.25 56.9557 577.302 47.0018 565.6 47.2776C558.839 47.4371 551.464 52.1705 544.982 51.2991ZM527.098 23.6008C516.002 25.1139 513.432 31.7216 505.192 33.6545C490.002 37.2176 477.829 21.2272 464.976 39.05C461.993 43.1837 459.288 47.4845 453.852 48.3372C449.372 49.04 441.549 45.2354 438.869 46.4534C438.664 47.152 438.509 47.2161 439.024 47.9329C443.847 54.6574 453.573 58.446 461.163 53.8098C468.562 49.2876 472.566 35.7328 483.414 38.2659C495.258 41.5073 499.318 47.6613 511.84 39.5315C516.249 36.6698 521.471 31.6103 527.232 33.0979C534.769 35.045 537.866 42.7575 546.536 43.4934C554.804 44.1951 564.311 36.4598 571.862 38.678C578.651 40.6725 580.843 53.6556 588.242 56.261C598.254 59.7862 608.019 50.0464 615.817 62.2258C617.597 65.0081 618.617 68.8528 620.312 71.7727C626.027 80.7907 632.975 79.8474 642.256 83.1301C653.863 87.2356 648.331 98.187 651.138 105.153C656.857 119.343 674.631 108.311 675.426 128.62C679.076 128.542 682.667 128.48 686.313 128.256C686.112 122.933 685.678 117.713 681.431 113.906C673.23 106.551 658.629 110.229 657.842 95.1877C657.552 89.7102 659.028 82.9533 654.718 79.2961C648.476 74.0003 636.258 75.8145 630.249 69.6282C620.241 59.3237 627.573 45.467 607.387 47.1477C600.891 47.6884 594.773 49.1574 589.46 44.9006C583.36 40.0138 582.569 26.7562 573.207 27.9631C562.814 29.3029 550.747 39.5148 540.484 30.6829C535.934 26.7678 533.6 23.7154 527.098 23.6008ZM533.922 9.70142C530.399 8.45234 528.146 8.44555 524.369 8.75415C514.146 10.9753 505.638 18.4973 496.562 19.0598C494.376 19.1828 492.183 18.9918 490.055 18.4924C486.821 17.7377 480.372 14.7335 478.451 17.0149C478.621 18.656 482.464 22.0197 483.735 23.0686C488.212 26.7627 493.07 27.7665 498.774 27.1311C512.994 25.5482 521.439 7.66556 536.768 19.8811C543.45 25.2047 545.152 27.7782 554.062 27.1917C563.809 26.5498 573.461 16.2077 582.227 23.2258C590.445 29.8093 588.342 43.0824 603.13 41.4045C609.198 40.7163 616.41 38.5159 621.483 42.5305C628.215 47.8593 627.397 57.8795 633.003 63.2473C642.888 72.7135 661.316 64.613 663.466 82.2512C664.394 89.8375 663.565 94.9772 668.557 101.199C679.405 110.554 690.215 106.599 691.415 122.894C691.524 124.403 691.573 125.917 691.562 127.43C695.043 127.464 698.059 127.491 701.532 127.274C701.327 118.924 699.743 110.557 693.551 104.471C688.478 99.4878 679.962 97.6199 675.454 92.1145C672.242 87.9781 672.841 82.1558 671.655 77.2542C670.575 72.787 668.948 70.1971 666.063 66.8918C659.232 59.0641 647.174 60.7744 639.488 56.7112C632.166 52.8391 632.254 35.3211 622.994 31.7141C613.289 26.4422 605.657 37.5479 596.962 29.7737C594.011 27.1375 592.348 23.9537 589.87 20.9465C585.426 15.6599 579.417 12.6034 572.398 12.7874C564.671 12.9899 557.811 19.3878 550.045 18.7668C543.454 18.24 539.941 11.8384 533.922 9.70142Z" fill="white"/>
</svg>
