<?xml version="1.0" encoding="UTF-8"?>
<svg id="Layer_1" data-name="Layer 1" xmlns="http://www.w3.org/2000/svg" viewBox="0 0 1200 131">
  <path d="M405,8.99l1,38.01-5.89-.12c-4.77-16.44-13.6-35.52-33.57-34.89-28.68.9-30.45,46.36-25.85,66.74,8.31,36.82,47.84,34.79,63.9,5.33l6.4,3.44c-10.37,19.58-28.74,31.24-51.37,29.38-73.22-6.02-64.52-121.66,17.79-110.78,4.9.65,15.36,6.91,18.54,5.41,2.81-1.33,4.02-3.9,9.05-2.5Z"/>
  <path d="M136,35v5c-2.88-.65-11,.84-11,4.5v24l1.5,1.5h32l1.5-1.5v-22c0-7.77-13.99-3.68-12-11.5h42l-.43,4.07c-5.43,2.37-9.89-.09-10.62,7.38-1.77,17.92,1.41,38.78.08,57.03,1.36,5.08,6.57,5,10.89,5.61l.07,3.89-42,.02v-3.99c4.41,1.11,12-1.36,12-6.5v-26.5c-8.16-.21-16.38.27-24.54.04-2.95-.08-7.73-2.44-9.97-.09-.94.99-.83,24.57-.22,27.3,1.66,7.46,11.13,1.88,11.73,9.74h-42s0-3.98,0-3.98c6.88.54,10.41-1.44,11.05-8.46.99-10.86,1.53-43.97-.11-53.99-.98-5.96-5.89-6.14-10.89-6.6l-.05-4.96h41Z"/>
  <path d="M907.5,35c24.5,2.6,43.05,23.24,37.25,48.25-8.65,37.31-56.99,30.23-85.76,29.75v-3.99c6.88-.02,10.36.04,11.05-7.46,1.62-17.72-1.22-37.99-.14-55.99-1.17-8.33-12.31-2.08-10.91-10.56,15.48,1.2,33.31-1.61,48.5,0ZM891.32,105.69c4.35,4.68,15.51,2.5,20.61-.26,14.93-8.06,14.36-43.09,5.5-55.37-5.67-7.87-16.36-11.84-25.93-10.06-4.46.83-1.55,5.21-1.46,8.45.46,15.65-.2,31.41,0,47.09.05,3.75-1.94,6.7,1.27,10.14Z"/>
  <path d="M501.22,74.33c0,23.45-19.01,42.46-42.46,42.46s-42.46-19.01-42.46-42.46,19.01-42.46,42.46-42.46,42.46,19.01,42.46,42.46ZM453.73,38.23c-19.4,4-18.81,52.76-8.98,65.52,5.69,7.39,15.66,9.09,23.59,4.08,14.91-9.43,13.95-50.97,4.11-63.78-4.3-5.59-12.01-7.21-18.72-5.82Z"/>
  <path d="M1030.5,35l42.5,53v-39.5c0-.73-3.43-5.78-4.48-6.52-3.81-2.71-9.76-.38-8.52-6.98h33l-.14,3.86c-6.83,1.53-12.86,3.44-12.86,11.64v63.5h-9.51s-47.99-60.01-47.99-60.01c-.17,12.34-1.3,25.18-.94,37.51.32,10.86,1.39,15.81,13.32,17.61l.12,3.89h-33l.06-3.94c5.44-.18,10.99-2.32,12.47-8.03s1.32-43.8.23-50.29c-1.08-6.44-6.23-10.75-12.72-10.78l-.04-4.96h28.5Z"/>
  <path d="M790.5,35l42.5,53v-36.5c0-.86-1.83-6.51-2.51-7.49-3.24-4.62-11.83-1.82-10.49-9.01h33l-.14,3.86c-4.22.96-12.86,3.01-12.86,8.64v66.5h-9.51s-48-60.01-48-60.01c-2.6-.28-.93.66-1.07,1.47-1.42,8.54-1.3,36.6.82,44.8,1.65,6.37,6.85,7.7,12.64,8.85l.12,3.89h-34v-3.98c11.59.04,13.35-5.22,14.05-15.48s1.18-33.01-.49-42.6c-.71-4.07-2.08-7.15-5.85-9.15-4.34-2.31-7.66-.2-7.7-6.8h29.5Z"/>
  <path d="M536.5,35l41.99,52.01c-.15-10.43,2.81-33.11-2.08-41.92-3.69-6.66-12.45-2.45-11.41-10.09h34l-.14,3.86c-.54.89-8.37,1.21-10.58,3.42-.88.88-3.28,8.16-3.28,9.22v62.5c-3.67-.37-8.16,1.21-11.07-1.43l-46.93-58.57v42.5c0,1.39,1.91,6.61,2.98,8.02,3.88,5.12,11.2,1.44,11.02,8.48h-32.5c-.21,0-1.14,1.5-1.49,1v-4.99c13.34.6,13.45-10.17,14.03-20.46.47-8.26,1.07-35.71-2.17-41.92-1.89-3.62-7.67-6.91-11.83-6.67l-.04-4.96h29.5Z"/>
  <path d="M1172,35l1,28.01c-1.4-.19-3.76.47-4.84-.17-.67-.4-4.62-11.64-6.33-14.17-9.74-14.38-29.86-15.32-37.22,1.45-7.49,17.05-6.74,59.96,18.89,59.96,4,0,13.6-2.07,14.48-6.59.52-2.68.34-14.87-.65-17.24-1.14-2.75-8.46-4.73-11.33-4.24v-4.99c9.43,2.69,20.03.25,29.48-.08,3.48-.12,6.45,1.64,9.51.08l-.04,4.96c-14.62-.69-7.09,15.58-9.12,24.88-9.46,4.07-21,8.4-31.35,9.14-65.62,4.72-59.18-98.54,11.3-81.26,2.32.57,6.58,3.01,7.91,3.13,1.59.14,4.81-4.6,8.31-2.85Z"/>
  <path d="M267,35v20c-6.02.71-7.35-7.75-11.96-11.54-1.45-1.19-6.03-3.46-7.54-3.46h-18.5v30c6.76.94,14.58,2.01,18.83-4.67,2.59-4.06,1.08-9.5,7.17-8.33v32c-6.08,1.17-4.58-4.27-7.16-8.34-4.25-6.68-11.99-4.26-18.84-5.66v29.5c0,5.34,21.94,4.02,25.84,2.84,6.95-2.12,10.19-15.06,13.15-16.85,1.25-.75,2.66-.5,4.01-.49l-1,22.99h-73s0-3.99,0-3.99c3.92.41,7.49-.49,10.52-3l.49-61.51c-1.05-5.72-13.01-1.84-11-9.5h69Z"/>
  <path d="M751,35v20c-6.02.71-7.35-7.75-11.96-11.54-1.45-1.19-6.03-3.46-7.54-3.46h-18.5v30c6.91.58,14.43,2.24,18.83-4.67,2.59-4.06,1.08-9.5,7.17-8.33v32c-6.08,1.17-4.58-4.27-7.16-8.34-4.08-6.41-12.26-4.69-18.84-5.66v29.5c0,5.33,21.95,4.03,25.84,2.84,2.41-.74,3.56-2.09,5.14-3.86,2.23-2.5,8.57-16.84,12.02-13.48l-1.01,24-72.99-1v-3.99c5.7.15,10.61-.22,11.77-6.75,1.7-9.58.66-31.21.29-41.81-.19-5.5-1.2-11.19-1.2-16.73-2.96-4.94-12.34-1.18-10.84-8.73h69Z"/>
  <path d="M676,35l1,21.99c-6.86,1.72-7.29-6.47-10.56-10.93-4.57-6.22-10.11-6.16-17.44-6.07l.3,65.7c3.09,4.09,12.7.41,10.7,7.29l-42,.02v-3.99c2.84.74,11-1.21,11-4.51V40c-8.78-.48-13.06.07-18.23,7.27-3.33,4.64-3.43,11.43-9.77,9.73v-22h75Z"/>
  <path d="M89,35v22l-4.87-.13c-3.98-12.03-9.4-18.79-23.13-16.87v63.5c0,4.74,10.66,4.48,11.05,6.12l-.05,3.37c-13.93,2.53-27.94-.95-42,0l.91-3.5c3.11-.2,11.09-2.1,11.09-5.99v-63.5c-13.13-1.79-20.11,4.58-23.11,16.88l-4.89.12v-22h75Z"/>
  <path d="M995,35l-.96,4.54c-3.35.94-9.15.44-10.02,4.98l.04,57.92c1.26,8.08,10.48,5.37,10.99,7.11l-.06,3.43c-13.93,2.55-27.94-.95-42,.02v-3.99c7.22.56,11.35-.8,12.05-8.46.97-10.63,1.47-44.13-.29-53.8-1.75-9.6-12.63-2.87-11.76-11.74h42Z"/>
</svg>